# WaveFront *.obj file (generated by Cheetah3D)

mtllib Baum.mtl

g Baumstamm_1
v -0.500000 -0.500000 0.500000
v -0.500000 0.500000 0.500000
v 0.500000 0.500000 0.500000
v 0.500000 -0.500000 0.500000
v 0.500000 -0.500000 -0.500000
v 0.500000 0.500000 -0.500000
v -0.500000 0.500000 -0.500000
v -0.500000 -0.500000 -0.500000

vt 0.338917 0.341600
vt 0.338917 0.661200
vt 0.658518 0.661200
vt 0.658518 0.341600
vt 0.008013 0.010613
vt 0.008013 0.330214
vt 0.327613 0.330214
vt 0.327613 0.010613
vt 0.009448 0.339921
vt 0.009448 0.659521
vt 0.329047 0.659521
vt 0.329047 0.339921
vt 0.673525 0.339920
vt 0.673525 0.659521
vt 0.993126 0.659521
vt 0.993126 0.339920
vt 0.335623 0.670662
vt 0.335623 0.990262
vt 0.655224 0.990262
vt 0.655224 0.670662
vt 0.339273 0.009259
vt 0.339273 0.328859
vt 0.658873 0.328859
vt 0.658873 0.009259

vn 0.000000 0.000000 1.000000
vn 0.000000 0.000000 -1.000000
vn -1.000000 0.000000 0.000000
vn 1.000000 0.000000 0.000000
vn 0.000000 1.000000 0.000000
vn 0.000000 -1.000000 0.000000

usemtl Baumstamm_1
f 4/4/1 3/3/1 2/2/1 1/1/1
f 8/8/2 7/7/2 6/6/2 5/5/2
f 1/12/3 2/11/3 7/10/3 8/9/3
f 5/16/4 6/15/4 3/14/4 4/13/4
f 3/20/5 6/19/5 7/18/5 2/17/5
f 5/24/6 4/23/6 1/22/6 8/21/6

usemtl default

g Baumstamm_1a
v -0.500000 0.500000 0.500000
v -0.500000 1.500000 0.500000
v 0.500000 1.500000 0.500000
v 0.500000 0.500000 0.500000
v 0.500000 0.500000 -0.500000
v 0.500000 1.500000 -0.500000
v -0.500000 1.500000 -0.500000
v -0.500000 0.500000 -0.500000

vt 0.338917 0.341600
vt 0.338917 0.661200
vt 0.658518 0.661200
vt 0.658518 0.341600
vt 0.008013 0.010613
vt 0.008013 0.330214
vt 0.327613 0.330214
vt 0.327613 0.010613
vt 0.009448 0.339921
vt 0.009448 0.659521
vt 0.329047 0.659521
vt 0.329047 0.339921
vt 0.673525 0.339920
vt 0.673525 0.659521
vt 0.993126 0.659521
vt 0.993126 0.339920
vt 0.335623 0.670662
vt 0.335623 0.990262
vt 0.655224 0.990262
vt 0.655224 0.670662
vt 0.339273 0.009259
vt 0.339273 0.328859
vt 0.658873 0.328859
vt 0.658873 0.009259

vn 0.000000 0.000000 1.000000
vn 0.000000 0.000000 -1.000000
vn -1.000000 0.000000 0.000000
vn 1.000000 0.000000 0.000000
vn 0.000000 1.000000 0.000000
vn 0.000000 -1.000000 0.000000

usemtl Baumstamm_1
f 12/28/7 11/27/7 10/26/7 9/25/7
f 16/32/8 15/31/8 14/30/8 13/29/8
f 9/36/9 10/35/9 15/34/9 16/33/9
f 13/40/10 14/39/10 11/38/10 12/37/10
f 11/44/11 14/43/11 15/42/11 10/41/11
f 13/48/12 12/47/12 9/46/12 16/45/12

usemtl default

g Baumstamm_1b
v -0.500000 1.500000 0.500000
v -0.500000 2.500000 0.500000
v 0.500000 2.500000 0.500000
v 0.500000 1.500000 0.500000
v 0.500000 1.500000 -0.500000
v 0.500000 2.500000 -0.500000
v -0.500000 2.500000 -0.500000
v -0.500000 1.500000 -0.500000

vt 0.338917 0.341600
vt 0.338917 0.661200
vt 0.658518 0.661200
vt 0.658518 0.341600
vt 0.008013 0.010613
vt 0.008013 0.330214
vt 0.327613 0.330214
vt 0.327613 0.010613
vt 0.009448 0.339921
vt 0.009448 0.659521
vt 0.329047 0.659521
vt 0.329047 0.339921
vt 0.673525 0.339920
vt 0.673525 0.659521
vt 0.993126 0.659521
vt 0.993126 0.339920
vt 0.335623 0.670662
vt 0.335623 0.990262
vt 0.655224 0.990262
vt 0.655224 0.670662
vt 0.339273 0.009259
vt 0.339273 0.328859
vt 0.658873 0.328859
vt 0.658873 0.009259

vn 0.000000 0.000000 1.000000
vn 0.000000 0.000000 -1.000000
vn -1.000000 0.000000 0.000000
vn 1.000000 0.000000 0.000000
vn 0.000000 1.000000 0.000000
vn 0.000000 -1.000000 0.000000

usemtl Baumstamm_1
f 20/52/13 19/51/13 18/50/13 17/49/13
f 24/56/14 23/55/14 22/54/14 21/53/14
f 17/60/15 18/59/15 23/58/15 24/57/15
f 21/64/16 22/63/16 19/62/16 20/61/16
f 19/68/17 22/67/17 23/66/17 18/65/17
f 21/72/18 20/71/18 17/70/18 24/69/18

usemtl default

g Baumstamm_1c
v -0.500000 2.500000 0.500000
v -0.500000 3.500000 0.500000
v 0.500000 3.500000 0.500000
v 0.500000 2.500000 0.500000
v 0.500000 2.500000 -0.500000
v 0.500000 3.500000 -0.500000
v -0.500000 3.500000 -0.500000
v -0.500000 2.500000 -0.500000

vt 0.338917 0.341600
vt 0.338917 0.661200
vt 0.658518 0.661200
vt 0.658518 0.341600
vt 0.008013 0.010613
vt 0.008013 0.330214
vt 0.327613 0.330214
vt 0.327613 0.010613
vt 0.009448 0.339921
vt 0.009448 0.659521
vt 0.329047 0.659521
vt 0.329047 0.339921
vt 0.673525 0.339920
vt 0.673525 0.659521
vt 0.993126 0.659521
vt 0.993126 0.339920
vt 0.335623 0.670662
vt 0.335623 0.990262
vt 0.655224 0.990262
vt 0.655224 0.670662
vt 0.339273 0.009259
vt 0.339273 0.328859
vt 0.658873 0.328859
vt 0.658873 0.009259

vn 0.000000 0.000000 1.000000
vn 0.000000 0.000000 -1.000000
vn -1.000000 0.000000 0.000000
vn 1.000000 0.000000 0.000000
vn 0.000000 1.000000 0.000000
vn 0.000000 -1.000000 0.000000

usemtl Baumstamm_1
f 28/76/19 27/75/19 26/74/19 25/73/19
f 32/80/20 31/79/20 30/78/20 29/77/20
f 25/84/21 26/83/21 31/82/21 32/81/21
f 29/88/22 30/87/22 27/86/22 28/85/22
f 27/92/23 30/91/23 31/90/23 26/89/23
f 29/96/24 28/95/24 25/94/24 32/93/24

usemtl default

g Baumstamm_1d
v -0.500000 3.500000 0.500000
v -0.500000 4.500000 0.500000
v 0.500000 4.500000 0.500000
v 0.500000 3.500000 0.500000
v 0.500000 3.500000 -0.500000
v 0.500000 4.500000 -0.500000
v -0.500000 4.500000 -0.500000
v -0.500000 3.500000 -0.500000

vt 0.338917 0.341600
vt 0.338917 0.661200
vt 0.658518 0.661200
vt 0.658518 0.341600
vt 0.008013 0.010613
vt 0.008013 0.330214
vt 0.327613 0.330214
vt 0.327613 0.010613
vt 0.009448 0.339921
vt 0.009448 0.659521
vt 0.329047 0.659521
vt 0.329047 0.339921
vt 0.673525 0.339920
vt 0.673525 0.659521
vt 0.993126 0.659521
vt 0.993126 0.339920
vt 0.335623 0.670662
vt 0.335623 0.990262
vt 0.655224 0.990262
vt 0.655224 0.670662
vt 0.339273 0.009259
vt 0.339273 0.328859
vt 0.658873 0.328859
vt 0.658873 0.009259

vn 0.000000 0.000000 1.000000
vn 0.000000 0.000000 -1.000000
vn -1.000000 0.000000 0.000000
vn 1.000000 0.000000 0.000000
vn 0.000000 1.000000 0.000000
vn 0.000000 -1.000000 0.000000

usemtl Baumstamm_1
f 36/100/25 35/99/25 34/98/25 33/97/25
f 40/104/26 39/103/26 38/102/26 37/101/26
f 33/108/27 34/107/27 39/106/27 40/105/27
f 37/112/28 38/111/28 35/110/28 36/109/28
f 35/116/29 38/115/29 39/114/29 34/113/29
f 37/120/30 36/119/30 33/118/30 40/117/30

usemtl default

g Baumstamm_1e
v -0.500000 4.500000 0.500000
v -0.500000 5.500000 0.500000
v 0.500000 5.500000 0.500000
v 0.500000 4.500000 0.500000
v 0.500000 4.500000 -0.500000
v 0.500000 5.500000 -0.500000
v -0.500000 5.500000 -0.500000
v -0.500000 4.500000 -0.500000

vt 0.338917 0.341600
vt 0.338917 0.661200
vt 0.658518 0.661200
vt 0.658518 0.341600
vt 0.008013 0.010613
vt 0.008013 0.330214
vt 0.327613 0.330214
vt 0.327613 0.010613
vt 0.009448 0.339921
vt 0.009448 0.659521
vt 0.329047 0.659521
vt 0.329047 0.339921
vt 0.673525 0.339920
vt 0.673525 0.659521
vt 0.993126 0.659521
vt 0.993126 0.339920
vt 0.335623 0.670662
vt 0.335623 0.990262
vt 0.655224 0.990262
vt 0.655224 0.670662
vt 0.339273 0.009259
vt 0.339273 0.328859
vt 0.658873 0.328859
vt 0.658873 0.009259

vn 0.000000 0.000000 1.000000
vn 0.000000 0.000000 -1.000000
vn -1.000000 0.000000 0.000000
vn 1.000000 0.000000 0.000000
vn 0.000000 1.000000 0.000000
vn 0.000000 -1.000000 0.000000

usemtl Baumstamm_1
f 44/124/31 43/123/31 42/122/31 41/121/31
f 48/128/32 47/127/32 46/126/32 45/125/32
f 41/132/33 42/131/33 47/130/33 48/129/33
f 45/136/34 46/135/34 43/134/34 44/133/34
f 43/140/35 46/139/35 47/138/35 42/137/35
f 45/144/36 44/143/36 41/142/36 48/141/36

usemtl default

g Blatt
v 0.500000 2.500000 0.500000
v 0.500000 3.500000 0.500000
v 1.500000 3.500000 0.500000
v 1.500000 2.500000 0.500000
v 1.500000 2.500000 -0.500000
v 1.500000 3.500000 -0.500000
v 0.500000 3.500000 -0.500000
v 0.500000 2.500000 -0.500000

vt 0.000000 0.000000
vt 0.000000 1.000000
vt 1.000000 1.000000
vt 1.000000 0.000000

vn 0.000000 0.000000 1.000000
vn 0.000000 0.000000 -1.000000
vn -1.000000 0.000000 0.000000
vn 1.000000 0.000000 0.000000
vn 0.000000 1.000000 0.000000
vn 0.000000 -1.000000 0.000000

usemtl Blatt
f 52/148/37 51/147/37 50/146/37 49/145/37
f 56/148/38 55/147/38 54/146/38 53/145/38
f 49/148/39 50/147/39 55/146/39 56/145/39
f 53/148/40 54/147/40 51/146/40 52/145/40
f 51/148/41 54/147/41 55/146/41 50/145/41
f 53/148/42 52/147/42 49/146/42 56/145/42

usemtl default

g Blatt_a
v -0.500000 5.500000 0.500000
v -0.500000 6.500000 0.500000
v 0.500000 6.500000 0.500000
v 0.500000 5.500000 0.500000
v 0.500000 5.500000 -0.500000
v 0.500000 6.500000 -0.500000
v -0.500000 6.500000 -0.500000
v -0.500000 5.500000 -0.500000

vt 0.000000 0.000000
vt 0.000000 1.000000
vt 1.000000 1.000000
vt 1.000000 0.000000

vn 0.000000 0.000000 1.000000
vn 0.000000 0.000000 -1.000000
vn -1.000000 0.000000 0.000000
vn 1.000000 0.000000 0.000000
vn 0.000000 1.000000 0.000000
vn 0.000000 -1.000000 0.000000

usemtl Blatt
f 60/152/43 59/151/43 58/150/43 57/149/43
f 64/152/44 63/151/44 62/150/44 61/149/44
f 57/152/45 58/151/45 63/150/45 64/149/45
f 61/152/46 62/151/46 59/150/46 60/149/46
f 59/152/47 62/151/47 63/150/47 58/149/47
f 61/152/48 60/151/48 57/150/48 64/149/48

usemtl default

g Blatt_b
v -1.500000 4.500000 0.500000
v -1.500000 5.500000 0.500000
v -0.500000 5.500000 0.500000
v -0.500000 4.500000 0.500000
v -0.500000 4.500000 -0.500000
v -0.500000 5.500000 -0.500000
v -1.500000 5.500000 -0.500000
v -1.500000 4.500000 -0.500000

vt 0.000000 0.000000
vt 0.000000 1.000000
vt 1.000000 1.000000
vt 1.000000 0.000000

vn 0.000000 0.000000 1.000000
vn 0.000000 0.000000 -1.000000
vn -1.000000 0.000000 0.000000
vn 1.000000 0.000000 0.000000
vn 0.000000 1.000000 0.000000
vn 0.000000 -1.000000 0.000000

usemtl Blatt
f 68/156/49 67/155/49 66/154/49 65/153/49
f 72/156/50 71/155/50 70/154/50 69/153/50
f 65/156/51 66/155/51 71/154/51 72/153/51
f 69/156/52 70/155/52 67/154/52 68/153/52
f 67/156/53 70/155/53 71/154/53 66/153/53
f 69/156/54 68/155/54 65/154/54 72/153/54

usemtl default

g Blatt_c
v -0.500000 4.500000 -0.500000
v -0.500000 5.500000 -0.500000
v 0.500000 5.500000 -0.500000
v 0.500000 4.500000 -0.500000
v 0.500000 4.500000 -1.500000
v 0.500000 5.500000 -1.500000
v -0.500000 5.500000 -1.500000
v -0.500000 4.500000 -1.500000

vt 0.000000 0.000000
vt 0.000000 1.000000
vt 1.000000 1.000000
vt 1.000000 0.000000

vn 0.000000 0.000000 1.000000
vn 0.000000 0.000000 -1.000000
vn -1.000000 0.000000 0.000000
vn 1.000000 0.000000 0.000000
vn 0.000000 1.000000 0.000000
vn 0.000000 -1.000000 0.000000

usemtl Blatt
f 76/160/55 75/159/55 74/158/55 73/157/55
f 80/160/56 79/159/56 78/158/56 77/157/56
f 73/160/57 74/159/57 79/158/57 80/157/57
f 77/160/58 78/159/58 75/158/58 76/157/58
f 75/160/59 78/159/59 79/158/59 74/157/59
f 77/160/60 76/159/60 73/158/60 80/157/60

usemtl default

g Blatt_d
v -0.500000 4.500000 1.500000
v -0.500000 5.500000 1.500000
v 0.500000 5.500000 1.500000
v 0.500000 4.500000 1.500000
v 0.500000 4.500000 0.500000
v 0.500000 5.500000 0.500000
v -0.500000 5.500000 0.500000
v -0.500000 4.500000 0.500000

vt 0.000000 0.000000
vt 0.000000 1.000000
vt 1.000000 1.000000
vt 1.000000 0.000000

vn 0.000000 0.000000 1.000000
vn 0.000000 0.000000 -1.000000
vn -1.000000 0.000000 0.000000
vn 1.000000 0.000000 0.000000
vn 0.000000 1.000000 0.000000
vn 0.000000 -1.000000 0.000000

usemtl Blatt
f 84/164/61 83/163/61 82/162/61 81/161/61
f 88/164/62 87/163/62 86/162/62 85/161/62
f 81/164/63 82/163/63 87/162/63 88/161/63
f 85/164/64 86/163/64 83/162/64 84/161/64
f 83/164/65 86/163/65 87/162/65 82/161/65
f 85/164/66 84/163/66 81/162/66 88/161/66

usemtl default

g Blatt_e
v 0.500000 4.500000 0.500000
v 0.500000 5.500000 0.500000
v 1.500000 5.500000 0.500000
v 1.500000 4.500000 0.500000
v 1.500000 4.500000 -0.500000
v 1.500000 5.500000 -0.500000
v 0.500000 5.500000 -0.500000
v 0.500000 4.500000 -0.500000

vt 0.000000 0.000000
vt 0.000000 1.000000
vt 1.000000 1.000000
vt 1.000000 0.000000

vn 0.000000 0.000000 1.000000
vn 0.000000 0.000000 -1.000000
vn -1.000000 0.000000 0.000000
vn 1.000000 0.000000 0.000000
vn 0.000000 1.000000 0.000000
vn 0.000000 -1.000000 0.000000

usemtl Blatt
f 92/168/67 91/167/67 90/166/67 89/165/67
f 96/168/68 95/167/68 94/166/68 93/165/68
f 89/168/69 90/167/69 95/166/69 96/165/69
f 93/168/70 94/167/70 91/166/70 92/165/70
f 91/168/71 94/167/71 95/166/71 90/165/71
f 93/168/72 92/167/72 89/166/72 96/165/72

usemtl default

g Blatt_f
v -0.500000 2.500000 1.500000
v -0.500000 3.500000 1.500000
v 0.500000 3.500000 1.500000
v 0.500000 2.500000 1.500000
v 0.500000 2.500000 0.500000
v 0.500000 3.500000 0.500000
v -0.500000 3.500000 0.500000
v -0.500000 2.500000 0.500000

vt 0.000000 0.000000
vt 0.000000 1.000000
vt 1.000000 1.000000
vt 1.000000 0.000000

vn 0.000000 0.000000 1.000000
vn 0.000000 0.000000 -1.000000
vn -1.000000 0.000000 0.000000
vn 1.000000 0.000000 0.000000
vn 0.000000 1.000000 0.000000
vn 0.000000 -1.000000 0.000000

usemtl Blatt
f 100/172/73 99/171/73 98/170/73 97/169/73
f 104/172/74 103/171/74 102/170/74 101/169/74
f 97/172/75 98/171/75 103/170/75 104/169/75
f 101/172/76 102/171/76 99/170/76 100/169/76
f 99/172/77 102/171/77 103/170/77 98/169/77
f 101/172/78 100/171/78 97/170/78 104/169/78

usemtl default

g Blatt_g
v -0.500000 2.500000 -0.500000
v -0.500000 3.500000 -0.500000
v 0.500000 3.500000 -0.500000
v 0.500000 2.500000 -0.500000
v 0.500000 2.500000 -1.500000
v 0.500000 3.500000 -1.500000
v -0.500000 3.500000 -1.500000
v -0.500000 2.500000 -1.500000

vt 0.000000 0.000000
vt 0.000000 1.000000
vt 1.000000 1.000000
vt 1.000000 0.000000

vn 0.000000 0.000000 1.000000
vn 0.000000 0.000000 -1.000000
vn -1.000000 0.000000 0.000000
vn 1.000000 0.000000 0.000000
vn 0.000000 1.000000 0.000000
vn 0.000000 -1.000000 0.000000

usemtl Blatt
f 108/176/79 107/175/79 106/174/79 105/173/79
f 112/176/80 111/175/80 110/174/80 109/173/80
f 105/176/81 106/175/81 111/174/81 112/173/81
f 109/176/82 110/175/82 107/174/82 108/173/82
f 107/176/83 110/175/83 111/174/83 106/173/83
f 109/176/84 108/175/84 105/174/84 112/173/84

usemtl default

g Blatt_h
v -1.500000 2.500000 0.500000
v -1.500000 3.500000 0.500000
v -0.500000 3.500000 0.500000
v -0.500000 2.500000 0.500000
v -0.500000 2.500000 -0.500000
v -0.500000 3.500000 -0.500000
v -1.500000 3.500000 -0.500000
v -1.500000 2.500000 -0.500000

vt 0.000000 0.000000
vt 0.000000 1.000000
vt 1.000000 1.000000
vt 1.000000 0.000000

vn 0.000000 0.000000 1.000000
vn 0.000000 0.000000 -1.000000
vn -1.000000 0.000000 0.000000
vn 1.000000 0.000000 0.000000
vn 0.000000 1.000000 0.000000
vn 0.000000 -1.000000 0.000000

usemtl Blatt
f 116/180/85 115/179/85 114/178/85 113/177/85
f 120/180/86 119/179/86 118/178/86 117/177/86
f 113/180/87 114/179/87 119/178/87 120/177/87
f 117/180/88 118/179/88 115/178/88 116/177/88
f 115/180/89 118/179/89 119/178/89 114/177/89
f 117/180/90 116/179/90 113/178/90 120/177/90

usemtl default

g Blatt_i
v -0.500000 3.500000 2.500000
v -0.500000 4.500000 2.500000
v 0.500000 4.500000 2.500000
v 0.500000 3.500000 2.500000
v 0.500000 3.500000 1.500000
v 0.500000 4.500000 1.500000
v -0.500000 4.500000 1.500000
v -0.500000 3.500000 1.500000

vt 0.000000 0.000000
vt 0.000000 1.000000
vt 1.000000 1.000000
vt 1.000000 0.000000

vn 0.000000 0.000000 1.000000
vn 0.000000 0.000000 -1.000000
vn -1.000000 0.000000 0.000000
vn 1.000000 0.000000 0.000000
vn 0.000000 1.000000 0.000000
vn 0.000000 -1.000000 0.000000

usemtl Blatt
f 124/184/91 123/183/91 122/182/91 121/181/91
f 128/184/92 127/183/92 126/182/92 125/181/92
f 121/184/93 122/183/93 127/182/93 128/181/93
f 125/184/94 126/183/94 123/182/94 124/181/94
f 123/184/95 126/183/95 127/182/95 122/181/95
f 125/184/96 124/183/96 121/182/96 128/181/96

usemtl default

g Blatt_j
v -0.500000 3.500000 1.500000
v -0.500000 4.500000 1.500000
v 0.500000 4.500000 1.500000
v 0.500000 3.500000 1.500000
v 0.500000 3.500000 0.500000
v 0.500000 4.500000 0.500000
v -0.500000 4.500000 0.500000
v -0.500000 3.500000 0.500000

vt 0.000000 0.000000
vt 0.000000 1.000000
vt 1.000000 1.000000
vt 1.000000 0.000000

vn 0.000000 0.000000 1.000000
vn 0.000000 0.000000 -1.000000
vn -1.000000 0.000000 0.000000
vn 1.000000 0.000000 0.000000
vn 0.000000 1.000000 0.000000
vn 0.000000 -1.000000 0.000000

usemtl Blatt
f 132/188/97 131/187/97 130/186/97 129/185/97
f 136/188/98 135/187/98 134/186/98 133/185/98
f 129/188/99 130/187/99 135/186/99 136/185/99
f 133/188/100 134/187/100 131/186/100 132/185/100
f 131/188/101 134/187/101 135/186/101 130/185/101
f 133/188/102 132/187/102 129/186/102 136/185/102

usemtl default

g Blatt_k
v -0.500000 3.500000 -1.500000
v -0.500000 4.500000 -1.500000
v 0.500000 4.500000 -1.500000
v 0.500000 3.500000 -1.500000
v 0.500000 3.500000 -2.500000
v 0.500000 4.500000 -2.500000
v -0.500000 4.500000 -2.500000
v -0.500000 3.500000 -2.500000

vt 0.000000 0.000000
vt 0.000000 1.000000
vt 1.000000 1.000000
vt 1.000000 0.000000

vn 0.000000 0.000000 1.000000
vn 0.000000 0.000000 -1.000000
vn -1.000000 0.000000 0.000000
vn 1.000000 0.000000 0.000000
vn 0.000000 1.000000 0.000000
vn 0.000000 -1.000000 0.000000

usemtl Blatt
f 140/192/103 139/191/103 138/190/103 137/189/103
f 144/192/104 143/191/104 142/190/104 141/189/104
f 137/192/105 138/191/105 143/190/105 144/189/105
f 141/192/106 142/191/106 139/190/106 140/189/106
f 139/192/107 142/191/107 143/190/107 138/189/107
f 141/192/108 140/191/108 137/190/108 144/189/108

usemtl default

g Blatt_l
v -0.500000 3.500000 -0.500000
v -0.500000 4.500000 -0.500000
v 0.500000 4.500000 -0.500000
v 0.500000 3.500000 -0.500000
v 0.500000 3.500000 -1.500000
v 0.500000 4.500000 -1.500000
v -0.500000 4.500000 -1.500000
v -0.500000 3.500000 -1.500000

vt 0.000000 0.000000
vt 0.000000 1.000000
vt 1.000000 1.000000
vt 1.000000 0.000000

vn 0.000000 0.000000 1.000000
vn 0.000000 0.000000 -1.000000
vn -1.000000 0.000000 0.000000
vn 1.000000 0.000000 0.000000
vn 0.000000 1.000000 0.000000
vn 0.000000 -1.000000 0.000000

usemtl Blatt
f 148/196/109 147/195/109 146/194/109 145/193/109
f 152/196/110 151/195/110 150/194/110 149/193/110
f 145/196/111 146/195/111 151/194/111 152/193/111
f 149/196/112 150/195/112 147/194/112 148/193/112
f 147/196/113 150/195/113 151/194/113 146/193/113
f 149/196/114 148/195/114 145/194/114 152/193/114

usemtl default

g Blatt_m
v 1.500000 3.500000 0.500000
v 1.500000 4.500000 0.500000
v 2.500000 4.500000 0.500000
v 2.500000 3.500000 0.500000
v 2.500000 3.500000 -0.500000
v 2.500000 4.500000 -0.500000
v 1.500000 4.500000 -0.500000
v 1.500000 3.500000 -0.500000

vt 0.000000 0.000000
vt 0.000000 1.000000
vt 1.000000 1.000000
vt 1.000000 0.000000

vn 0.000000 0.000000 1.000000
vn 0.000000 0.000000 -1.000000
vn -1.000000 0.000000 0.000000
vn 1.000000 0.000000 0.000000
vn 0.000000 1.000000 0.000000
vn 0.000000 -1.000000 0.000000

usemtl Blatt
f 156/200/115 155/199/115 154/198/115 153/197/115
f 160/200/116 159/199/116 158/198/116 157/197/116
f 153/200/117 154/199/117 159/198/117 160/197/117
f 157/200/118 158/199/118 155/198/118 156/197/118
f 155/200/119 158/199/119 159/198/119 154/197/119
f 157/200/120 156/199/120 153/198/120 160/197/120

usemtl default

g Blatt_n
v 0.500000 3.500000 0.500000
v 0.500000 4.500000 0.500000
v 1.500000 4.500000 0.500000
v 1.500000 3.500000 0.500000
v 1.500000 3.500000 -0.500000
v 1.500000 4.500000 -0.500000
v 0.500000 4.500000 -0.500000
v 0.500000 3.500000 -0.500000

vt 0.000000 0.000000
vt 0.000000 1.000000
vt 1.000000 1.000000
vt 1.000000 0.000000

vn 0.000000 0.000000 1.000000
vn 0.000000 0.000000 -1.000000
vn -1.000000 0.000000 0.000000
vn 1.000000 0.000000 0.000000
vn 0.000000 1.000000 0.000000
vn 0.000000 -1.000000 0.000000

usemtl Blatt
f 164/204/121 163/203/121 162/202/121 161/201/121
f 168/204/122 167/203/122 166/202/122 165/201/122
f 161/204/123 162/203/123 167/202/123 168/201/123
f 165/204/124 166/203/124 163/202/124 164/201/124
f 163/204/125 166/203/125 167/202/125 162/201/125
f 165/204/126 164/203/126 161/202/126 168/201/126

usemtl default

g Blatt_o
v -2.500000 3.500000 0.500000
v -2.500000 4.500000 0.500000
v -1.500000 4.500000 0.500000
v -1.500000 3.500000 0.500000
v -1.500000 3.500000 -0.500000
v -1.500000 4.500000 -0.500000
v -2.500000 4.500000 -0.500000
v -2.500000 3.500000 -0.500000

vt 0.000000 0.000000
vt 0.000000 1.000000
vt 1.000000 1.000000
vt 1.000000 0.000000

vn 0.000000 0.000000 1.000000
vn 0.000000 0.000000 -1.000000
vn -1.000000 0.000000 0.000000
vn 1.000000 0.000000 0.000000
vn 0.000000 1.000000 0.000000
vn 0.000000 -1.000000 0.000000

usemtl Blatt
f 172/208/127 171/207/127 170/206/127 169/205/127
f 176/208/128 175/207/128 174/206/128 173/205/128
f 169/208/129 170/207/129 175/206/129 176/205/129
f 173/208/130 174/207/130 171/206/130 172/205/130
f 171/208/131 174/207/131 175/206/131 170/205/131
f 173/208/132 172/207/132 169/206/132 176/205/132

usemtl default

g Blatt_p
v -1.500000 3.500000 0.500000
v -1.500000 4.500000 0.500000
v -0.500000 4.500000 0.500000
v -0.500000 3.500000 0.500000
v -0.500000 3.500000 -0.500000
v -0.500000 4.500000 -0.500000
v -1.500000 4.500000 -0.500000
v -1.500000 3.500000 -0.500000

vt 0.000000 0.000000
vt 0.000000 1.000000
vt 1.000000 1.000000
vt 1.000000 0.000000

vn 0.000000 0.000000 1.000000
vn 0.000000 0.000000 -1.000000
vn -1.000000 0.000000 0.000000
vn 1.000000 0.000000 0.000000
vn 0.000000 1.000000 0.000000
vn 0.000000 -1.000000 0.000000

usemtl Blatt
f 180/212/133 179/211/133 178/210/133 177/209/133
f 184/212/134 183/211/134 182/210/134 181/209/134
f 177/212/135 178/211/135 183/210/135 184/209/135
f 181/212/136 182/211/136 179/210/136 180/209/136
f 179/212/137 182/211/137 183/210/137 178/209/137
f 181/212/138 180/211/138 177/210/138 184/209/138

usemtl default

g Blatt_q
v -1.500000 3.500000 1.500000
v -1.500000 4.500000 1.500000
v -0.500000 4.500000 1.500000
v -0.500000 3.500000 1.500000
v -0.500000 3.500000 0.500000
v -0.500000 4.500000 0.500000
v -1.500000 4.500000 0.500000
v -1.500000 3.500000 0.500000

vt 0.000000 0.000000
vt 0.000000 1.000000
vt 1.000000 1.000000
vt 1.000000 0.000000

vn 0.000000 0.000000 1.000000
vn 0.000000 0.000000 -1.000000
vn -1.000000 0.000000 0.000000
vn 1.000000 0.000000 0.000000
vn 0.000000 1.000000 0.000000
vn 0.000000 -1.000000 0.000000

usemtl Blatt
f 188/216/139 187/215/139 186/214/139 185/213/139
f 192/216/140 191/215/140 190/214/140 189/213/140
f 185/216/141 186/215/141 191/214/141 192/213/141
f 189/216/142 190/215/142 187/214/142 188/213/142
f 187/216/143 190/215/143 191/214/143 186/213/143
f 189/216/144 188/215/144 185/214/144 192/213/144

usemtl default

g Blatt_r
v 0.500000 3.500000 1.500000
v 0.500000 4.500000 1.500000
v 1.500000 4.500000 1.500000
v 1.500000 3.500000 1.500000
v 1.500000 3.500000 0.500000
v 1.500000 4.500000 0.500000
v 0.500000 4.500000 0.500000
v 0.500000 3.500000 0.500000

vt 0.000000 0.000000
vt 0.000000 1.000000
vt 1.000000 1.000000
vt 1.000000 0.000000

vn 0.000000 0.000000 1.000000
vn 0.000000 0.000000 -1.000000
vn -1.000000 0.000000 0.000000
vn 1.000000 0.000000 0.000000
vn 0.000000 1.000000 0.000000
vn 0.000000 -1.000000 0.000000

usemtl Blatt
f 196/220/145 195/219/145 194/218/145 193/217/145
f 200/220/146 199/219/146 198/218/146 197/217/146
f 193/220/147 194/219/147 199/218/147 200/217/147
f 197/220/148 198/219/148 195/218/148 196/217/148
f 195/220/149 198/219/149 199/218/149 194/217/149
f 197/220/150 196/219/150 193/218/150 200/217/150

usemtl default

g Blatt_s
v -1.500000 3.500000 -0.500000
v -1.500000 4.500000 -0.500000
v -0.500000 4.500000 -0.500000
v -0.500000 3.500000 -0.500000
v -0.500000 3.500000 -1.500000
v -0.500000 4.500000 -1.500000
v -1.500000 4.500000 -1.500000
v -1.500000 3.500000 -1.500000

vt 0.000000 0.000000
vt 0.000000 1.000000
vt 1.000000 1.000000
vt 1.000000 0.000000

vn 0.000000 0.000000 1.000000
vn 0.000000 0.000000 -1.000000
vn -1.000000 0.000000 0.000000
vn 1.000000 0.000000 0.000000
vn 0.000000 1.000000 0.000000
vn 0.000000 -1.000000 0.000000

usemtl Blatt
f 204/224/151 203/223/151 202/222/151 201/221/151
f 208/224/152 207/223/152 206/222/152 205/221/152
f 201/224/153 202/223/153 207/222/153 208/221/153
f 205/224/154 206/223/154 203/222/154 204/221/154
f 203/224/155 206/223/155 207/222/155 202/221/155
f 205/224/156 204/223/156 201/222/156 208/221/156

usemtl default

g Blatt_t
v 0.500000 3.500000 -0.500000
v 0.500000 4.500000 -0.500000
v 1.500000 4.500000 -0.500000
v 1.500000 3.500000 -0.500000
v 1.500000 3.500000 -1.500000
v 1.500000 4.500000 -1.500000
v 0.500000 4.500000 -1.500000
v 0.500000 3.500000 -1.500000

vt 0.000000 0.000000
vt 0.000000 1.000000
vt 1.000000 1.000000
vt 1.000000 0.000000

vn 0.000000 0.000000 1.000000
vn 0.000000 0.000000 -1.000000
vn -1.000000 0.000000 0.000000
vn 1.000000 0.000000 0.000000
vn 0.000000 1.000000 0.000000
vn 0.000000 -1.000000 0.000000

usemtl Blatt
f 212/228/157 211/227/157 210/226/157 209/225/157
f 216/228/158 215/227/158 214/226/158 213/225/158
f 209/228/159 210/227/159 215/226/159 216/225/159
f 213/228/160 214/227/160 211/226/160 212/225/160
f 211/228/161 214/227/161 215/226/161 210/225/161
f 213/228/162 212/227/162 209/226/162 216/225/162

usemtl default

