# WaveFront *.obj file (generated by Cheetah3D)

mtllib Erde mit Grass.mtl

g Erde mit Grass
v -0.500000 -0.500000 0.500000
v -0.500000 0.500000 0.500000
v 0.500000 0.500000 0.500000
v 0.500000 -0.500000 0.500000
v 0.500000 -0.500000 -0.500000
v 0.500000 0.500000 -0.500000
v -0.500000 0.500000 -0.500000
v -0.500000 -0.500000 -0.500000

vt 0.338917 0.341600
vt 0.338917 0.661200
vt 0.658518 0.661200
vt 0.658518 0.341600
vt 0.008013 0.010613
vt 0.008013 0.330214
vt 0.327613 0.330214
vt 0.327613 0.010613
vt 0.009448 0.339921
vt 0.009448 0.659521
vt 0.329047 0.659521
vt 0.329047 0.339921
vt 0.673525 0.339920
vt 0.673525 0.659521
vt 0.993126 0.659521
vt 0.993126 0.339920
vt 0.335623 0.670662
vt 0.335623 0.990262
vt 0.655224 0.990262
vt 0.655224 0.670662
vt 0.339273 0.009259
vt 0.339273 0.328859
vt 0.658873 0.328859
vt 0.658873 0.009259

vn 0.000000 0.000000 1.000000
vn 0.000000 0.000000 -1.000000
vn -1.000000 0.000000 0.000000
vn 1.000000 0.000000 0.000000
vn 0.000000 1.000000 0.000000
vn 0.000000 -1.000000 0.000000

usemtl Erde_mit_Grass
f 4/4/1 3/3/1 2/2/1 1/1/1
f 8/8/2 7/7/2 6/6/2 5/5/2
f 1/12/3 2/11/3 7/10/3 8/9/3
f 5/16/4 6/15/4 3/14/4 4/13/4
f 3/20/5 6/19/5 7/18/5 2/17/5
f 5/24/6 4/23/6 1/22/6 8/21/6

usemtl default

